<!DOCTYPE svg PUBLIC "-//W3C//DTD SVG 1.1//EN" "http://www.w3.org/Graphics/SVG/1.1/DTD/svg11.dtd">
<!-- Uploaded to: SVG Repo, www.svgrepo.com, Transformed by: SVG Repo Mixer Tools -->
<svg width="256px" height="256px" viewBox="0 0 32.00 32.00" xmlns="http://www.w3.org/2000/svg" xmlns:xlink="http://www.w3.org/1999/xlink" fill="#f87720" stroke="#f87720" stroke-width="0.032">
<g id="SVGRepo_bgCarrier" stroke-width="0"/>
<g id="SVGRepo_tracerCarrier" stroke-linecap="round" stroke-linejoin="round" stroke="CCCCCC" stroke-width="0.192"/>
<g id="SVGRepo_iconCarrier"> <defs> <clipPath id="clip-burger"> <rect width="32" height="32"/> </clipPath> </defs> <g id="burger" clip-path="url(clip-burger)"> <g id="Group_2792" data-name="Group 2792" transform="translate(-52 -208)"> <g id="Group_2767" data-name="Group 2767"> <g id="Group_2766" data-name="Group 2766"> <g id="Group_2765" data-name="Group 2765"> <path id="Path_3916" data-name="Path 3916" d="M80.718,225.632h-.312v-3.716h.573a1,1,0,0,0,.964-1.266,14.461,14.461,0,0,0-27.886,0,1,1,0,0,0,.964,1.266h.573v3.716h-.312a3.118,3.118,0,0,0-3.115,3.115v.4a3.111,3.111,0,0,0,2.257,2.981,2.942,2.942,0,0,0-.216,1.1v1.791a2.966,2.966,0,0,0,2.962,2.963H79.205a2.966,2.966,0,0,0,2.962-2.963v-1.791a2.925,2.925,0,0,0-.26-1.2,3.118,3.118,0,0,0,1.926-2.877v-.4A3.118,3.118,0,0,0,80.718,225.632ZM68,212.025a12.507,12.507,0,0,1,11.592,7.891H56.408A12.507,12.507,0,0,1,68,212.025Zm10.406,9.891v1.128a3.393,3.393,0,0,0-.472.354,1.068,1.068,0,0,1-1.628,0,2.048,2.048,0,0,0-2.943,0,1.064,1.064,0,0,1-1.623,0,2.046,2.046,0,0,0-2.942,0,1.06,1.06,0,0,1-1.62,0,2.041,2.041,0,0,0-2.938,0,1.058,1.058,0,0,1-1.618,0,2.042,2.042,0,0,0-2.939,0,1.06,1.06,0,0,1-1.62,0,3.23,3.23,0,0,0-.469-.35v-1.132Zm-20.812,2.393a1.909,1.909,0,0,0,1.278.465,2.059,2.059,0,0,0,1.471-.624,1.059,1.059,0,0,1,1.619,0,2.04,2.04,0,0,0,2.938,0,1.059,1.059,0,0,1,1.618,0,2.042,2.042,0,0,0,2.939,0,1.064,1.064,0,0,1,1.623,0,2.045,2.045,0,0,0,2.941,0,1.067,1.067,0,0,1,1.626,0,2.036,2.036,0,0,0,1.473.624,1.892,1.892,0,0,0,1.286-.469v1.327h-.314a1,1,0,0,0-.937.65,1.88,1.88,0,0,1-1.749,1.224,1.844,1.844,0,0,1-1.184-.439,1.011,1.011,0,0,0-.355-.18.973.973,0,0,0-.12-.021,1.01,1.01,0,0,0-.163-.028,1.066,1.066,0,0,0-.187.017,1.275,1.275,0,0,1-1.351-.671,1,1,0,0,0-.895-.552H57.594Zm-3.427,4.438a1.116,1.116,0,0,1,1.115-1.115H70.6a3.248,3.248,0,0,0,2.706,1.245,3.788,3.788,0,0,0,2.1.629,3.888,3.888,0,0,0,3.308-1.874h2a1.116,1.116,0,0,1,1.115,1.115v.4a1.117,1.117,0,0,1-1.115,1.116H55.282a1.117,1.117,0,0,1-1.115-1.116Zm26,6.265a.964.964,0,0,1-.962.963H57.17a.964.964,0,0,1-.962-.963v-1.791a.963.963,0,0,1,.962-.962H79.205a.963.963,0,0,1,.962.962Z" fill=""/> </g> </g> </g> <g id="Group_2770" data-name="Group 2770"> <g id="Group_2769" data-name="Group 2769"> <g id="Group_2768" data-name="Group 2768"> <path id="Path_3917" data-name="Path 3917" d="M72.347,215.5a.732.732,0,1,0-.732-.732A.733.733,0,0,0,72.347,215.5Z" fill=""/> </g> </g> </g> <g id="Group_2773" data-name="Group 2773"> <g id="Group_2772" data-name="Group 2772"> <g id="Group_2771" data-name="Group 2771"> <circle id="Ellipse_10" data-name="Ellipse 10" cx="0.732" cy="0.732" r="0.732" transform="translate(67.267 212.574)" fill=""/> </g> </g> </g> <g id="Group_2776" data-name="Group 2776"> <g id="Group_2775" data-name="Group 2775"> <g id="Group_2774" data-name="Group 2774"> <circle id="Ellipse_11" data-name="Ellipse 11" cx="0.732" cy="0.732" r="0.732" transform="translate(75.465 217.14)" fill=""/> </g> </g> </g> <g id="Group_2779" data-name="Group 2779"> <g id="Group_2778" data-name="Group 2778"> <g id="Group_2777" data-name="Group 2777"> <path id="Path_3918" data-name="Path 3918" d="M63.844,215.5a.732.732,0,1,0-.732-.732A.733.733,0,0,0,63.844,215.5Z" fill=""/> </g> </g> </g> <g id="Group_2782" data-name="Group 2782"> <g id="Group_2781" data-name="Group 2781"> <g id="Group_2780" data-name="Group 2780"> <path id="Path_3919" data-name="Path 3919" d="M68.192,215.238a.732.732,0,1,0,.732.733A.733.733,0,0,0,68.192,215.238Z" fill=""/> </g> </g> </g> <g id="Group_2785" data-name="Group 2785"> <g id="Group_2784" data-name="Group 2784"> <g id="Group_2783" data-name="Group 2783"> <circle id="Ellipse_12" data-name="Ellipse 12" cx="0.732" cy="0.732" r="0.732" transform="translate(63.112 217.14)" fill=""/> </g> </g> </g> <g id="Group_2788" data-name="Group 2788"> <g id="Group_2787" data-name="Group 2787"> <g id="Group_2786" data-name="Group 2786"> <circle id="Ellipse_13" data-name="Ellipse 13" cx="0.732" cy="0.732" r="0.732" transform="translate(71.615 217.14)" fill=""/> </g> </g> </g> <g id="Group_2791" data-name="Group 2791"> <g id="Group_2790" data-name="Group 2790"> <g id="Group_2789" data-name="Group 2789"> <circle id="Ellipse_14" data-name="Ellipse 14" cx="0.732" cy="0.732" r="0.732" transform="translate(59.261 217.14)" fill=""/> </g> </g> </g> </g> </g> </g>
</svg>